Coordinates
nRows=4
nColumns=38

# SIMM Motion File Header:
name Coordinates
datacolumns 38
datarows 4
otherdata 1
range 1.81450000000000000000 1.81750000000000010000

Units are S.I. units (second, meters, Newtons, ...)
Angles are in degrees.

endheader
time	pelvis_tilt	pelvis_list	pelvis_rotation	pelvis_tx	pelvis_ty	pelvis_tz	hip_flexion_r	hip_adduction_r	hip_rotation_r	knee_angle_r	ankle_angle_r	subtalar_angle_r	mtp_angle_r	hip_flexion_l	hip_adduction_l	hip_rotation_l	knee_angle_l	ankle_angle_l	subtalar_angle_l	mtp_angle_l	lumbar_extension	lumbar_bending	lumbar_rotation	arm_flex_r	arm_add_r	arm_rot_r	elbow_flex_r	pro_sup_r	wrist_flex_r	wrist_dev_r	arm_flex_l	arm_add_l	arm_rot_l	elbow_flex_l	pro_sup_l	wrist_flex_l	wrist_dev_l
      1.81450000000000000000	     -3.80753962032642420000	      2.54724314186027990000	     -0.33658987887008707000	      1.17571614792514260000	      0.97460706166594058000	     -0.41576454293129694000	    -25.44734441696099500000	      4.66312485141085450000	      8.87673390156886200000	    -54.13179338340482600000	    -22.84983358176910800000	      0.00000000000003962635	     -0.00000000000012097901	     30.13624393118421500000	      9.15441481478280570000	      9.45539747540803790000	     -5.79681750648557430000	     13.81533078926661400000	      0.00000000000001708188	      0.00000000000004689555	    -11.31416634536025600000	     -4.28192153717315000000	     17.39975655832070300000	    -17.50430431098262900000	    -29.46072365285196400000	     -1.33249672861004750000	    134.16495067728260000000	     91.68964321996799100000	     -0.00000000000000251748	      0.00000000000001062232	    -59.26598239917687000000	     -7.95968490831140500000	    -21.91340451156558400000	    129.63944009715678000000	     94.82881937591535900000	      0.00000000000000184215	     -0.00000000000002929721
      1.81550000000000010000	     -3.75610377904573100000	      2.51050671431962510000	     -0.28192844226864555000	      1.17575481280318650000	      0.97442737827185621000	     -0.41582214564713088000	    -25.26659527167965500000	      4.67737125691856280000	      8.60902419317617350000	    -54.88975623938110000000	    -22.78855644726748500000	      0.00000000000003991983	     -0.00000000000012159132	     29.92955695567645300000	      9.15004711463073940000	      9.46703166853593460000	     -5.46666439851675000000	     13.78850957675181900000	      0.00000000000001712737	      0.00000000000004712018	    -11.39370881151930900000	     -4.23412349559565370000	     17.32485292827878000000	    -17.68725303014984000000	    -29.37259102638415300000	     -1.40554323159242030000	    133.85852381700673000000	     91.66773707254157000000	     -0.00000000000000251960	      0.00000000000001064503	    -58.98526269884943900000	     -7.97499761765628270000	    -21.84304719496836000000	    129.60383456157646000000	     94.84678708154045500000	      0.00000000000000185028	     -0.00000000000002946312
      1.81650000000000000000	     -3.70558957941952370000	      2.47639953971840180000	     -0.22878831907668160000	      1.17578916180833710000	      0.97423834724964942000	     -0.41587928011381742000	    -25.08159787821921300000	      4.68453231455608870000	      8.33913581429128040000	    -55.64909161608176900000	    -22.72260465243312700000	      0.00000000000004021332	     -0.00000000000012220501	     29.73021721076733200000	      9.14819080397618120000	      9.46812802415920270000	     -5.16305885608781350000	     13.76104292917570100000	      0.00000000000001717509	      0.00000000000004734352	    -11.47217155519542700000	     -4.18909902238837620000	     17.24957034108149400000	    -17.86844492234708800000	    -29.28129372614800700000	     -1.47799701166868270000	    133.54737374788346000000	     91.64343027693156800000	     -0.00000000000000252162	      0.00000000000001066479	    -58.70184452535087900000	     -7.99200516239962600000	    -21.77111262740484300000	    129.56669395711364000000	     94.86314159351633200000	      0.00000000000000185833	     -0.00000000000002963022
      1.81750000000000010000	     -3.65589371131848310000	      2.44492286654306930000	     -0.17718208347434633000	      1.17581924475527580000	      0.97404018667345837000	     -0.41593583528534900000	    -24.89261482167819000000	      4.68469968207283480000	      8.06760020809998400000	    -56.40957040701567100000	    -22.65158042575910700000	      0.00000000000004050533	     -0.00000000000012281900	     29.53820478861345600000	      9.14888526303851890000	      9.45867665794238200000	     -4.88624963688026260000	     13.73262495027184100000	      0.00000000000001722197	      0.00000000000004756791	    -11.54966623233069400000	     -4.14687393280179430000	     17.17388898268746500000	    -18.04777664365315500000	    -29.18689176408450000000	     -1.54986188837960030000	    133.23151786772459000000	     91.61691241426245800000	     -0.00000000000000252404	      0.00000000000001068467	    -58.41578899884711300000	     -8.01069456529283030000	    -21.69764584878847900000	    129.52805455966921000000	     94.87777235984916000000	      0.00000000000000186694	     -0.00000000000002979819
